HIERARCHY
ROOT Hips
{
	OFFSET 0.000000 0.000000 0.000000
	CHANNELS 6 Xposition Yposition Zposition Zrotation Yrotation Xrotation 
	JOINT LeftUpLeg_virtual
	{
		OFFSET 0.000000 0.000000 0.000000
		CHANNELS 3 Zrotation Yrotation Xrotation
		JOINT LeftUpLeg
		{
			OFFSET 10.205400 -3.823500 0.155100
			CHANNELS 3 Zrotation Yrotation Xrotation
			JOINT LeftLeg
			{
				OFFSET 0.708757 -12.982077 0.567790
				CHANNELS 3 Zrotation Yrotation Xrotation
				JOINT LeftFoot
				{
					OFFSET -0.708756 -10.717838 -2.184338
					CHANNELS 3 Zrotation Yrotation Xrotation
					JOINT LeftToeBase
					{
						OFFSET 0.108149 -7.191104 7.560241
						CHANNELS 3 Zrotation Yrotation Xrotation
						End Site
						{
							OFFSET 0.000000 0.000000 0.000000
						}
					}
				}
			}
		}
	}
	JOINT RightUpLeg_virtual
	{
		OFFSET 0.000000 0.000000 0.000000
		CHANNELS 3 Zrotation Yrotation Xrotation
		JOINT RightUpLeg
		{
			OFFSET -10.205400 -3.823500 0.005500
			CHANNELS 3 Zrotation Yrotation Xrotation
			JOINT RightLeg
			{
				OFFSET -0.708756 -12.982134 0.610632
				CHANNELS 3 Zrotation Yrotation Xrotation
				JOINT RightFoot
				{
					OFFSET 0.708754 -10.717769 -1.945823
					CHANNELS 3 Zrotation Yrotation Xrotation
					JOINT RightToeBase
					{
						OFFSET -0.108140 -7.191069 7.372968
						CHANNELS 3 Zrotation Yrotation Xrotation
						End Site
						{
							OFFSET 0.000000 0.000000 0.000000
						}
					}
				}
			}
		}
	}
	JOINT Spine_virtual
	{
		OFFSET 0.000000 0.000000 0.000000
		CHANNELS 3 Zrotation Yrotation Xrotation
		JOINT Spine
		{
			OFFSET 0.000000 6.876099 0.125700
			CHANNELS 3 Zrotation Yrotation Xrotation
			JOINT Spine1
			{
				OFFSET 0.000000 8.022060 0.146608
				CHANNELS 3 Zrotation Yrotation Xrotation
				JOINT Spine2
				{
					OFFSET 0.000000 9.168068 0.167552
					CHANNELS 3 Zrotation Yrotation Xrotation
					JOINT Neck_virtual
					{
						OFFSET 0.000000 0.000000 0.000000
						CHANNELS 3 Zrotation Yrotation Xrotation
						JOINT Neck
						{
							OFFSET 0.000000 10.314075 0.188496
							CHANNELS 3 Zrotation Yrotation Xrotation
							JOINT Head
							{
								OFFSET 0.000000 7.643700 -2.377400
								CHANNELS 3 Zrotation Yrotation Xrotation
								End Site
								{
									OFFSET 0.000000 0.000000 0.000000
								}
							}
						}
					}
					JOINT LeftShoulder_virtual
					{
						OFFSET 0.000000 0.000000 0.000000
						CHANNELS 3 Zrotation Yrotation Xrotation
						JOINT LeftShoulder
						{
							OFFSET 4.392200 8.824978 0.174984
							CHANNELS 3 Zrotation Yrotation Xrotation
							JOINT LeftArm
							{
								OFFSET 8.771219 -2.981674 -0.026999
								CHANNELS 3 Zrotation Yrotation Xrotation
								JOINT LeftForeArm
								{
									OFFSET 8.512804 0.000000 -0.000000
									CHANNELS 3 Zrotation Yrotation Xrotation
									JOINT LeftHand
									{
										OFFSET 18.484802 0.000000 -0.000000
										CHANNELS 3 Zrotation Yrotation Xrotation
										End Site
										{
											OFFSET 0.000000 0.000000 0.000000
										}
									}
								}
							}
						}
					}
					JOINT RightShoulder_virtual
					{
						OFFSET 0.000000 0.000000 0.000000
						CHANNELS 3 Zrotation Yrotation Xrotation
						JOINT RightShoulder
						{
							OFFSET -4.392200 8.824993 0.141379
							CHANNELS 3 Zrotation Yrotation Xrotation
							JOINT RightArm
							{
								OFFSET -8.771282 -2.981682 -0.094208
								CHANNELS 3 Zrotation Yrotation Xrotation
								JOINT RightForeArm
								{
									OFFSET -8.494598 0.000000 0.000000
									CHANNELS 3 Zrotation Yrotation Xrotation
									JOINT RightHand
									{
										OFFSET -18.483803 0.000000 0.000001
										CHANNELS 3 Zrotation Yrotation Xrotation
										End Site
										{
											OFFSET 0.000000 0.000000 0.000000
										}
									}
								}
							}
						}
					}
				}
			}
		}
	}
}
MOTION
Frames: 10
Frame Time: 0.033333
-2.554806 36.394043 -10.017122 179.991850 -4.719890 179.856093 -0.202774 -0.481394 13.098079 -2.400003 -4.102781 -13.336436 2.820419 1.911678 10.983994 1.893040 1.231848 8.982523 0.000000 0.000000 0.000000 4.509552 0.632028 14.452969 -3.540901 -1.057262 -13.255065 -3.275382 4.887566 13.066200 9.643955 2.940804 6.206162 0.000000 0.000000 0.000000 2.676155 2.680109 -0.861150 4.674573 -2.494984 -13.959601 -0.297793 -3.947704 7.547248 0.085184 -0.004019 -0.093858 -0.971004 -1.721107 12.436721 2.762636 3.111216 21.845165 0.000000 0.000000 0.000000 0.850138 -1.171499 8.830378 -12.480888 -8.767834 -5.980421 -23.759920 -6.217730 94.118197 2.371276 -46.617209 11.837979 0.000000 0.000000 0.000000 -3.488447 -0.122547 8.292812 24.626018 8.917611 7.425704 36.700229 -5.643869 10.822878 -2.989457 60.814119 -6.631116 0.000000 0.000000 0.000000 
-2.574067 36.369274 -10.064819 -179.962999 -4.780827 179.916800 -0.160575 -0.653952 13.064449 -2.160621 -4.465446 -13.430944 2.917366 1.746970 10.879603 1.848044 1.124916 9.193897 0.000000 0.000000 0.000000 4.536977 0.513694 14.358921 -3.411320 -0.623448 -13.584389 -3.282392 5.448140 13.163798 9.991563 3.172490 5.894672 0.000000 0.000000 0.000000 2.640079 2.614784 -0.731847 4.463295 -2.049494 -14.013844 -0.265320 -4.056989 7.455231 -0.009419 -0.088656 -0.036195 -0.959852 -1.717768 12.136600 2.864405 2.926181 21.390780 0.000000 0.000000 0.000000 0.847412 -1.099797 8.781795 -13.126508 -8.379065 -6.215649 -23.853363 -5.374891 91.083059 2.429069 -45.873757 11.373508 0.000000 0.000000 0.000000 -3.434876 -0.072397 8.374773 24.917734 9.324150 7.558489 36.906528 -5.014999 10.631527 -2.862219 58.609512 -6.259637 0.000000 0.000000 0.000000 
-2.548947 36.307217 -10.138534 179.995921 -5.142159 179.963108 -0.151831 -1.356161 13.273925 -2.086456 -4.473791 -13.625764 2.737142 1.959946 11.394168 2.018526 1.108754 8.730881 0.000000 0.000000 0.000000 4.371410 0.119854 14.356262 -3.126352 -0.468508 -13.713457 -3.404541 5.430536 13.728493 10.146431 2.967884 5.679760 0.000000 0.000000 0.000000 2.614429 2.035560 -0.501100 4.086442 -1.591665 -14.070147 -0.388990 -3.871157 7.452191 -0.045056 -0.003263 -0.012355 -1.026978 -1.589055 11.881403 2.813733 2.625578 20.914603 0.000000 0.000000 0.000000 0.696812 -0.935600 8.817237 -14.578706 -8.152404 -6.028516 -24.211405 -3.139356 83.615217 2.567618 -45.210706 10.545171 0.000000 0.000000 0.000000 -3.412325 0.186939 8.329436 25.644616 9.464926 7.723496 37.277957 -4.552193 10.085445 -2.722776 54.102389 -5.642685 0.000000 0.000000 0.000000 
-2.501980 36.234097 -10.217691 -179.992287 -5.614123 179.954229 -0.162582 -2.011395 13.532440 -1.910436 -4.473391 -14.035371 2.673714 2.091970 12.335465 2.101818 1.030708 7.844674 0.000000 0.000000 0.000000 4.205871 -0.481502 14.303980 -2.819553 -0.571306 -13.894637 -3.391536 5.268189 14.294999 10.489969 2.763422 5.361945 0.000000 0.000000 0.000000 2.637447 1.390475 -0.228686 3.632730 -0.969605 -14.088898 -0.501025 -3.648709 7.530903 -0.011768 0.006842 -0.001106 -1.228316 -1.210980 11.782469 2.666964 2.294437 20.399303 0.000000 0.000000 0.000000 0.485345 -0.524648 8.836608 -16.507777 -8.052820 -5.656831 -25.168042 0.422157 72.554210 2.686684 -44.464009 9.515227 0.000000 0.000000 0.000000 -3.584935 0.588042 8.319716 26.445760 9.258747 7.883310 37.638239 -4.984773 8.989251 -2.886680 48.438660 -5.117032 0.000000 0.000000 0.000000 
-2.442178 36.174015 -10.291623 -179.928151 -6.152203 179.833417 -0.195309 -2.637811 14.001454 -1.654095 -4.381359 -14.574273 2.740305 1.966053 13.262593 2.120749 1.002435 7.036531 0.000000 0.000000 0.000000 4.049366 -1.297051 14.408151 -2.572090 -0.805308 -14.072450 -3.393610 4.812279 14.735197 11.132439 2.650159 5.166054 0.000000 0.000000 0.000000 2.672986 0.753623 0.078605 3.211294 -0.413465 -14.078556 -0.556117 -3.349572 7.679086 -0.004175 0.002196 -0.060818 -1.321410 -0.802397 11.838422 2.421950 1.967092 19.885986 0.000000 0.000000 0.000000 0.379113 -0.059993 8.904611 -18.530802 -8.164399 -5.006363 -26.951940 5.044155 59.717157 2.873224 -43.274115 8.228351 0.000000 0.000000 0.000000 -3.653797 0.995394 8.373063 27.033592 8.451660 7.963856 38.314530 -6.677449 7.147157 -3.272802 42.870468 -4.649475 0.000000 0.000000 0.000000 
-2.381741 36.147511 -10.392657 -179.937864 -6.526017 179.908590 -0.390980 -3.062015 14.365894 -1.351102 -4.306827 -15.070432 2.907581 1.738080 13.852865 1.951191 0.978277 6.416710 0.000000 0.000000 0.000000 3.957713 -1.867401 14.551885 -2.387318 -0.787217 -14.339596 -3.493467 3.845408 15.071448 11.998273 2.620726 5.201505 0.000000 0.000000 0.000000 2.574794 0.352022 0.191071 2.832861 -0.070071 -13.952485 -0.464783 -2.893787 7.795728 0.003526 -0.024080 -0.007328 -1.251661 -0.405743 11.915589 2.117968 1.693889 19.408949 0.000000 0.000000 0.000000 0.458591 0.353322 8.917948 -20.157983 -8.541858 -4.225714 -29.388101 10.435379 47.494827 3.077602 -41.545551 6.908035 0.000000 0.000000 0.000000 -3.596695 1.357819 8.330219 27.179630 7.147083 7.903074 39.385623 -9.441303 4.953301 -3.755318 38.377436 -4.274685 0.000000 0.000000 0.000000 
-2.306101 36.153946 -10.494710 -179.999991 -6.607939 179.926417 -0.688564 -3.061852 14.713896 -1.039632 -4.213315 -15.298618 3.112197 1.550780 13.989439 1.598137 0.964661 6.099059 0.000000 0.000000 0.000000 3.857648 -2.023181 14.708508 -2.272571 -0.754416 -14.574526 -3.681185 2.871157 15.426238 12.828827 2.541147 5.370128 0.000000 0.000000 0.000000 2.331922 0.361678 0.316657 2.517393 0.143737 -13.751605 -0.222473 -2.714735 7.984137 0.009388 0.031895 -0.000302 -0.994874 -0.088676 11.963945 1.891065 1.607462 19.107104 0.000000 0.000000 0.000000 0.670391 0.571203 8.869796 -21.085235 -8.871715 -3.184548 -32.073482 16.075012 37.250902 3.232710 -40.025749 5.729683 0.000000 0.000000 0.000000 -3.410987 1.681449 8.353589 26.833047 5.718323 7.745153 41.009214 -12.958280 2.978834 -4.205349 35.180255 -3.950680 0.000000 0.000000 0.000000 
-2.211048 36.177010 -10.598996 -179.994473 -6.635936 179.930228 -0.886392 -2.896463 14.840101 -0.677439 -4.238015 -15.226401 3.385890 1.460978 13.899203 1.101293 0.984401 5.917729 0.000000 0.000000 0.000000 3.869028 -2.004562 14.816629 -2.119244 -0.696584 -14.659944 -3.935047 2.088604 15.791220 13.461064 2.336650 5.561538 0.000000 0.000000 0.000000 2.097505 0.528605 0.389951 2.240905 0.091555 -13.626784 0.052340 -2.513080 8.157817 0.005835 -0.009551 -0.030502 -0.617789 0.164551 11.941782 1.732608 1.725997 19.015687 0.000000 0.000000 0.000000 1.062823 0.936947 8.883989 -21.138768 -9.373121 -2.302449 -34.708173 21.516634 29.759216 3.342023 -38.763625 4.783220 0.000000 0.000000 0.000000 -3.110989 2.011967 8.364227 25.947865 4.264788 7.489447 43.026268 -16.760176 1.807803 -4.555202 33.322618 -3.673593 0.000000 0.000000 0.000000 
-2.112082 36.211067 -10.708366 179.976864 -6.352282 179.909683 -1.063229 -2.407552 14.689266 -0.312545 -4.275311 -14.804133 3.648804 1.537647 13.771068 0.468464 0.994286 5.750010 0.000000 0.000000 0.000000 3.904193 -1.584134 14.827077 -1.836238 -0.878318 -14.500037 -4.114586 1.875209 15.913799 13.678489 1.971168 5.532957 0.000000 0.000000 0.000000 1.821787 0.931201 0.446976 1.963681 0.004561 -13.477822 0.351033 -2.324099 8.340251 0.012623 0.025836 0.019577 -0.186376 0.280705 11.816085 1.586815 1.933734 19.187364 0.000000 0.000000 0.000000 1.497247 0.943662 8.741475 -20.357338 -9.748638 -1.544263 -36.999616 26.003008 24.625335 3.541053 -37.808314 3.994291 0.000000 0.000000 0.000000 -2.771257 2.133754 8.188491 24.668268 2.737200 7.337511 45.248244 -20.551261 1.218345 -4.693188 32.378491 -3.430650 0.000000 0.000000 0.000000 
-2.030252 36.238750 -10.808751 179.935583 -5.809865 179.957426 -1.227175 -2.034891 14.705397 0.044736 -4.160001 -14.553593 3.872193 2.174336 13.692130 -0.307678 0.907046 5.633695 0.000000 0.000000 0.000000 3.893712 -1.160700 14.714980 -1.557591 -0.907633 -14.249788 -4.221737 2.063572 15.926580 13.718823 1.698672 5.654623 0.000000 0.000000 0.000000 1.523897 1.309448 0.448854 1.680489 -0.167927 -13.393967 0.570847 -2.241103 8.520766 -0.009314 0.025233 -0.001836 0.157094 0.356160 11.730217 1.441918 2.252825 19.528870 0.000000 0.000000 0.000000 1.888737 0.972182 8.675853 -18.966361 -9.833348 -0.957669 -39.109100 29.684887 20.529042 3.714435 -36.917022 3.519555 0.000000 0.000000 0.000000 -2.466231 2.201006 8.096882 23.111379 1.439824 7.175045 47.353425 -23.823222 0.869083 -4.786699 31.929099 -3.380243 0.000000 0.000000 0.000000 
